<?xml version="1.0" encoding="utf-8" ?><svg xmlns="http://www.w3.org/2000/svg" xmlns:xlink="http://www.w3.org/1999/xlink" width="512" height="512" viewBox="0 0 512 512"><path fill="#0248F6" d="M205.338 54.747C323.548 51.5886 402.016 174.32 350 279.523C348.232 283.099 345.135 287.891 344.052 291.49L343.934 291.888C347.652 296.238 352.265 300.226 356.331 304.303L425.116 372.555C429.074 376.45 449.673 395.507 451.729 399.385C470.26 434.045 432.72 469.099 400.341 449.296C393.439 445.074 388.071 438.438 382.321 432.716L355.515 406.125L315.615 366.206C308.277 358.896 298.34 349.709 291.681 342.29C288.965 344.625 282.779 347.882 279.393 349.528C224.012 376.739 155.971 368.088 109.272 328.137C44.344 272.591 36.9778 172.287 93.4546 107.98C123.968 73.1944 160.436 58.1093 205.338 54.747ZM217.469 343.761C291.332 340.079 348.238 277.236 344.594 203.371C340.951 129.506 278.137 72.5685 204.269 76.1745C130.349 79.7831 73.3619 142.652 77.0081 216.571C80.6543 290.489 143.552 347.444 217.469 343.761Z"/><path fill="#64ABFE" d="M205.566 96.9035C267.918 94.0808 320.76 142.325 323.609 204.676C326.458 267.027 278.236 319.889 215.887 322.764C153.5 325.641 100.599 277.384 97.7485 214.996C94.8977 152.608 143.177 99.728 205.566 96.9035ZM158.535 240.517L211.875 240.517L264.052 240.517C261.074 234.303 211.743 160.388 210.744 159.893C208.01 164.34 205.062 168.663 202.262 173.073L170.797 221.927C167.089 227.666 161.897 234.886 158.535 240.517Z"/><path fill="#0248F6" d="M209.591 130.034C218.264 129.355 220.427 135.441 224.502 141.679L277.711 222.988C283.053 231.29 307.137 259.039 285.729 262.402C282.742 262.871 279.308 262.74 276.211 262.742L215.438 262.736L149.174 262.754C144.716 262.764 137.644 263.301 133.732 261.094C120.367 253.555 138.286 233.171 143.186 225.516C157.888 201.731 173.451 178.543 188.605 155.055L196.868 142.086C200.502 136.377 202.422 131.665 209.591 130.034ZM158.535 240.517L211.875 240.517L264.052 240.517C261.074 234.303 211.743 160.388 210.744 159.893C208.01 164.34 205.062 168.663 202.262 173.073L170.797 221.927C167.089 227.666 161.897 234.886 158.535 240.517Z"/><path fill="#64ABFE" d="M331.287 308.683C332.264 309.14 343.962 320.906 345.575 322.54L407.238 384.083C415.586 392.411 424.745 401.207 432.777 409.724C441.571 419.049 432.106 436.077 414.991 433.617C409.503 431.741 402.452 423.621 398.079 419.251L309.553 330.405C318.387 322.726 323.614 317.783 331.287 308.683Z"/></svg>