<?xml version="1.0" encoding="utf-8" ?><svg xmlns="http://www.w3.org/2000/svg" xmlns:xlink="http://www.w3.org/1999/xlink" width="1024" height="1024" viewBox="0 0 1024 1024"><path fill="#B821FE" d="M113.342 110.185C122.739 109.225 137.381 110.003 147.261 110.027L215.679 110.303L276.413 110.084C286.133 110.063 299.011 109.696 308.514 110.341C313.236 110.644 317.875 111.732 322.24 113.56C330.292 116.942 337.212 123.585 341.345 130.897C345.666 138.542 349.83 155.021 360.65 155.749C369.808 156.364 382.171 155.881 391.716 155.848L457.994 155.789L689.465 155.874L847.279 155.917L890.136 155.924C896.178 155.917 909.014 155.599 914.64 156.428C922.613 157.574 930.052 161.106 935.978 166.56C945.526 175.233 949.859 184.1 950.154 196.9C950.482 211.122 950.388 225.375 950.397 239.594L950.437 315.453L950.503 547.958L950.467 694.343L950.492 739.813C950.501 759.085 952.971 773.856 938.773 789.3C922.334 807.18 904.675 803.289 882.658 803.65C865.004 803.94 846.513 803.07 828.662 803.672C838.174 815.444 850.37 822.693 857.339 837.862C859.858 843.846 861.28 850.235 861.536 856.722C863.558 901.916 813.72 928.822 775.759 905.868C766.932 900.051 760.509 891.438 752.906 884.232C726.039 858.77 701.032 830.307 674.069 805.045C658.531 804.604 641.351 805.018 625.697 804.961L538.323 804.526L255.414 804.743L158.236 804.491L131.096 804.497C125.224 804.516 118.06 804.732 112.325 804.142C104.589 803.367 97.2101 800.497 90.9837 795.84C81.521 788.791 75.3266 778.202 73.8202 766.499C72.5933 757.016 73.0495 744.292 73.1211 734.468L73.3045 688.799L72.9652 535.677L73.0117 275.77L73.2286 189.61C73.2809 176.972 72.6298 163.506 73.2792 150.988C74.4157 129.081 92.3809 112.587 113.342 110.185ZM712.094 418.407C763.436 487.66 770.221 587.812 733.578 664.04C729.101 673.354 723.328 682.3 718.902 691.678C722.912 696.859 731.188 704.192 735.921 709.242C749.663 723.907 764.391 737.613 778.618 751.706L798.725 772.002C801.741 775.075 806.598 780.457 809.814 782.925C829.371 783.577 850.536 782.899 870.309 783.092L894.866 783.472C904.905 783.635 914.726 784.872 922.821 777.176C928.72 771.567 930.519 766.189 930.32 758.261C930.467 743.559 930.426 728.997 930.426 714.37L930.414 635.325L930.362 387.457L930.229 311.339C930.206 299.621 929.743 284.849 930.261 273.501C911.445 273.389 892.628 273.406 873.811 273.554L759.645 273.605L426.752 273.606L203.019 273.57L131.046 273.539C119.286 273.532 105.228 273.164 93.7183 273.581C92.7654 307.49 93.8798 345.134 93.9958 379.304L94.0197 568.044L93.801 689.116C93.6895 705.078 93.6916 721.04 93.8075 737.002C93.8397 744.081 93.5506 755.459 94.1268 762.249C94.5703 767.884 96.9479 773.194 100.857 777.277C107.756 784.605 114.429 785.462 123.738 785.536C142.675 785.685 161.567 785.103 180.491 785.038L298.159 785.002L367.626 785.171C383.495 785.305 400.937 785.811 416.731 785.342C409.774 780.985 402.748 777.912 395.56 774.038C388.104 770.02 380.666 765.308 373.672 760.531C323.072 725.959 287.256 673.689 273.281 614.021C259.025 550.75 270.323 484.409 304.717 429.424C339.27 373.639 394.964 334.248 459.072 320.251C523.308 306.221 590.486 318.343 645.766 353.94C673.11 371.295 693.455 392.275 712.094 418.407ZM638.494 769.936C629.895 774.583 617.487 780.646 609.561 785.378C615.359 785.606 621.485 785.828 627.276 785.542C635.974 785.442 646.532 785.798 654.926 785.354C652.145 781.963 642.506 771.927 638.494 769.936ZM126.67 130.758C116.84 130.766 108.465 130.163 100.806 137.762C97.3868 141.155 95.0792 144.645 94.5145 149.518C93.2757 160.206 93.705 173.318 93.6777 184.162L93.54 248.929C93.5497 250.058 93.5656 251.187 93.5875 252.317C121.89 253.211 154.267 252.492 182.854 252.482L344.973 252.522L899.25 252.534C909.022 252.556 920.858 252.968 930.39 252.727C929.719 237.333 930.061 221.554 930.036 205.864C930.016 192.969 927.856 180.122 911.965 177.826C904.939 176.811 896.269 177.374 889.073 177.368L848.686 177.308L703.373 177.029L468.388 177.034L396.327 177.219C383.985 177.205 370.889 177.462 358.751 176.494C346.4 175.508 333.408 165.276 328.599 154.108C322.885 140.84 320.704 130.719 303.45 130.719C295.576 130.718 286.985 130.724 278.975 130.749L236.18 130.767C199.937 130.773 162.836 130.316 126.67 130.758ZM499.684 400.675C412.445 407.387 347.139 483.508 353.77 570.753C360.4 657.998 436.46 723.376 523.711 716.827C611.078 710.269 676.561 634.087 669.922 546.726C663.283 459.365 587.039 393.954 499.684 400.675Z"/><path fill="#12F1B9" d="M498.729 335.488C622.601 328.125 728.945 422.669 736.135 546.551C743.324 670.433 648.632 776.644 524.74 783.66C401.093 790.663 295.137 696.198 287.962 572.561C280.786 448.924 375.103 342.836 498.729 335.488ZM523.711 716.827C611.078 710.269 676.561 634.087 669.922 546.726C663.283 459.365 587.039 393.954 499.684 400.675C412.445 407.387 347.139 483.508 353.77 570.753C360.4 657.998 436.46 723.376 523.711 716.827Z"/><path fill="#B821FE" d="M502.375 380.163C601.141 374.956 685.392 450.875 690.461 549.648C695.53 648.421 619.492 732.566 520.713 737.497C422.128 742.417 338.185 666.563 333.127 567.986C328.068 469.408 403.805 385.359 502.375 380.163ZM523.711 716.827C611.078 710.269 676.561 634.087 669.922 546.726C663.283 459.365 587.039 393.954 499.684 400.675C412.445 407.387 347.139 483.508 353.77 570.753C360.4 657.998 436.46 723.376 523.711 716.827Z"/><path fill="#B821FE" d="M509.643 448.637C526.703 446.744 534.51 458.473 541.799 471.508C545.225 477.635 549.367 484.157 553.013 490.225L582.585 538.943L608.81 581.324C613.292 588.616 618.175 596.213 622.147 603.655C627.072 613.848 624.72 625.669 616.875 633.54C608.377 642.065 600.42 641.533 589.294 641.538C583.348 641.54 577.206 641.529 571.19 641.528L515.25 641.514L451.97 641.526C444.734 641.526 426.461 641.923 420.372 640.973C416.525 640.378 412.879 638.861 409.746 636.552C404.291 632.514 400.66 626.478 399.649 619.767C398.994 615.638 399.206 610.132 401.022 606.354C405.173 597.718 410.953 589.153 416.042 580.992C423.365 569.145 430.629 557.261 437.832 545.34L473.18 486.872C478.787 477.706 484.4 468.444 490.302 459.464C494.956 452.382 501.721 449.886 509.643 448.637ZM515.625 517.236C522.697 517.202 539.59 517.703 545.911 516.922L528.208 488.506C524.911 483.133 521.692 477.369 518.013 472.268C515.966 469.43 513.72 468.818 510.339 468.983C500.715 475.782 490.863 499.478 483.25 509.815C481.903 511.643 480 514.858 478.741 516.891C486.182 517.791 507.104 517.267 515.625 517.236ZM598.783 611.397C596.045 616.599 593.978 614.994 588.656 615.951L581.641 616.044C578.441 615.6 559.916 616.234 554.745 616.048C549.974 615.409 549.411 614.515 545.058 613.545C543.748 614.229 543.504 614.449 542.037 614.746L541.125 613.982C540.018 611.155 540.269 611.691 537.44 611.213L536.579 612.8C534.925 615.282 533.143 617.827 531.751 620.454C534.059 620.706 535.938 621.008 538.263 620.844C541.27 620.983 544.732 620.977 547.747 620.91C564.394 620.536 581.576 621.54 598.165 620.723C601.474 620.083 602.797 620.108 604.232 617.036C604.135 610.522 587.509 586.069 582.872 578.706C579.866 573.843 573.937 563.27 570.814 559.466C566.241 565.294 558.801 578.411 554.223 585.33C553.414 587.018 553.152 589.172 552.641 590.206C551.66 592.191 550.592 590.996 548.878 593.803C548.189 594.797 546.199 597.523 545.754 598.452C545.882 599.71 545.103 604.139 544.897 605.668C546.453 603.095 547.764 600.828 549.615 598.448C551.672 595.916 555.157 591.007 556.423 588.132C559.055 585.276 563.629 578.258 564.648 574.527C568.063 572.513 568.4 571.716 570.656 568.497C572.105 570.261 575.408 574.953 577.082 575.863C578.362 575.657 578.669 575.524 579.937 575.68C580.794 577.836 579.208 579.707 580.066 582.939C583.284 587.086 594.727 608.261 598.032 609.063C598.965 609.289 598.624 609.153 599.387 609.815C599.161 610.718 599.291 610.73 598.783 611.397Z"/><path fill="#12F1B9" d="M482.09 537.242C507.774 537.068 533.46 537.151 559.143 537.492C556.255 543.807 548.501 554.224 544.696 560.719C537.402 573.171 529.108 585.491 521.368 597.699C516.654 605.135 511.873 613.546 506.824 620.641L496.75 620.661L446.14 620.681C440.557 620.684 426.072 621.039 421.4 620.364C419.424 618.844 420.081 619.765 419.159 617.643C419.173 612.163 433.753 591.126 437.337 585.36L466.696 537.47L482.09 537.242Z"/><path fill="#12F1B9" d="M570.656 568.497C572.105 570.261 575.408 574.953 577.082 575.863C578.362 575.657 578.669 575.524 579.937 575.68C580.794 577.836 579.208 579.707 580.066 582.939C583.284 587.086 594.727 608.261 598.032 609.063C598.965 609.289 598.624 609.153 599.387 609.815C599.161 610.718 599.291 610.73 598.783 611.397C596.045 616.599 593.978 614.994 588.656 615.951L581.641 616.044C578.441 615.6 559.916 616.234 554.745 616.048C549.974 615.409 549.411 614.515 545.058 613.545C543.748 614.229 543.504 614.449 542.037 614.746L541.125 613.982C540.018 611.155 540.269 611.691 537.44 611.213C538.31 609.641 538.596 609.018 539.803 607.632C543.066 606.984 539.87 608.456 542.876 608.517C544.885 606.401 543.977 605.825 542.883 603.537C542.936 601.492 544.432 600.116 545.754 598.452C545.882 599.71 545.103 604.139 544.897 605.668C546.453 603.095 547.764 600.828 549.615 598.448C551.672 595.916 555.157 591.007 556.423 588.132C559.055 585.276 563.629 578.258 564.648 574.527C568.063 572.513 568.4 571.716 570.656 568.497Z"/><path fill="#FFD700" fill-opacity="0.49411765" d="M554.223 585.33C558.801 578.411 566.241 565.294 570.814 559.466C573.937 563.27 579.866 573.843 582.872 578.706C582.255 581.694 582.327 580.299 580.066 582.939C579.208 579.707 580.794 577.836 579.937 575.68C578.669 575.524 578.362 575.657 577.082 575.863C575.408 574.953 572.105 570.261 570.656 568.497C568.4 571.716 568.063 572.513 564.648 574.527C563.629 578.258 559.055 585.276 556.423 588.132L556.33 586.821C555.502 586.174 555.093 585.9 554.223 585.33Z"/><path fill="#FFD700" fill-opacity="0.30980393" d="M537.44 611.213C540.269 611.691 540.018 611.155 541.125 613.982L542.037 614.746C543.504 614.449 543.748 614.229 545.058 613.545C549.411 614.515 549.974 615.409 554.745 616.048C556.208 616.384 557.042 616.615 558.547 616.777C553.773 619.916 549.095 621.935 543.544 619.173C543.062 619.397 542.34 619.705 541.899 619.962C542.27 615.095 540.857 614.468 536.579 612.8L537.44 611.213Z"/><path fill="#FFD700" fill-opacity="0.63921571" d="M554.745 616.048C559.916 616.234 578.441 615.6 581.641 616.044C582.807 618.85 583.822 617.807 583.733 620.531C581.165 620.819 577.8 620.476 575.156 620.315C576.218 619.672 575.816 620.085 576.417 619.134C573.936 616.213 566.253 616.915 562.723 617.562C561.746 617.74 561.863 618.131 561.444 618.989L560.904 619.821L560.89 620.093C553.907 621.885 546.765 619.751 541.497 620.498L541.899 619.962C542.34 619.705 543.062 619.397 543.544 619.173C549.095 621.935 553.773 619.916 558.547 616.777C557.042 616.615 556.208 616.384 554.745 616.048Z"/><path fill="#FFD700" fill-opacity="0.63921571" d="M561.444 618.989C564.972 618.993 573.723 619.239 576.417 619.134C575.816 620.085 576.218 619.672 575.156 620.315C577.8 620.476 581.165 620.819 583.733 620.531C586.795 620.448 589.183 620.442 592.247 620.576L595.519 620.457L598.165 620.723C581.576 621.54 564.394 620.536 547.747 620.91C544.732 620.977 541.27 620.983 538.263 620.844L541.497 620.498C546.765 619.751 553.907 621.885 560.89 620.093L560.904 619.821L561.444 618.989Z"/><path fill="#FED700" fill-opacity="0.17647059" d="M581.641 616.044L588.656 615.951C590.183 616.4 591.406 616.535 592.391 617.717L592.411 618.881L592.905 618.878C592.331 619.699 592.661 619.334 591.919 619.977L592.247 620.576C589.183 620.442 586.795 620.448 583.733 620.531C583.822 617.807 582.807 618.85 581.641 616.044Z"/><path fill="#FFD700" fill-opacity="0.30980393" d="M554.223 585.33C555.093 585.9 555.502 586.174 556.33 586.821L556.423 588.132C555.157 591.007 551.672 595.916 549.615 598.448C548.889 597.092 549.093 595.461 548.878 593.803C550.592 590.996 551.66 592.191 552.641 590.206C553.152 589.172 553.414 587.018 554.223 585.33Z"/><path fill="#FED700" fill-opacity="0.17647059" d="M598.783 611.397C598.526 614.747 598.593 616.376 596.853 619.31C595.655 619.956 595.921 619.509 595.519 620.457L592.247 620.576L591.919 619.977C592.661 619.334 592.331 619.699 592.905 618.878L592.411 618.881L592.391 617.717C591.406 616.535 590.183 616.4 588.656 615.951C593.978 614.994 596.045 616.599 598.783 611.397Z"/><path fill="#FFD700" fill-opacity="0.63921571" d="M561.444 618.989C561.863 618.131 561.746 617.74 562.723 617.562C566.253 616.915 573.936 616.213 576.417 619.134C573.723 619.239 564.972 618.993 561.444 618.989Z"/><path fill="#FFD700" fill-opacity="0.49411765" d="M548.878 593.803C549.093 595.461 548.889 597.092 549.615 598.448C547.764 600.828 546.453 603.095 544.897 605.668C545.103 604.139 545.882 599.71 545.754 598.452C546.199 597.523 548.189 594.797 548.878 593.803Z"/><path fill="#B821FE" d="M139.27 182.671C147.473 182.289 158.422 182.598 166.76 182.622L218.828 182.775C231.019 182.822 243.21 182.798 255.401 182.703C262.89 182.639 270.295 182.691 277.772 182.679C297.066 182.649 301.029 211.303 279.965 214.258C271.948 214.684 260.65 214.376 252.468 214.331L205.701 214.162L161.606 214.107C153.65 214.095 145.666 214.164 137.75 213.885C125.943 213.467 120.622 197.419 127.204 188.598C130.35 184.381 134.38 183.285 139.27 182.671Z"/><path fill="#B821FE" d="M750.474 200.619C758.869 200.158 767.823 200.682 776.28 200.467C784.68 200.253 796.737 200.835 799.014 210.972C799.873 214.763 799.115 218.74 796.922 221.949C794.159 226.042 791.109 227.598 786.448 228.434C776.811 228.488 750.925 230.906 743.624 226.446C740.609 224.605 738.593 221.774 737.904 218.307C737.021 213.857 737.53 209.735 740.227 206.037C742.917 202.347 746.194 201.351 750.474 200.619Z"/><path fill="#B821FE" d="M840.512 200.712C853.131 200.283 884.89 196.035 887.276 212.299C887.832 216.213 886.788 220.184 884.38 223.319C881.622 226.947 879.007 228.146 874.701 228.756C866.046 229.143 839.625 230.652 833.044 226.197C830.093 224.2 828.221 221.182 827.571 217.695C826.807 213.783 827.673 209.729 829.968 206.47C832.806 202.509 835.933 201.349 840.512 200.712Z"/><path fill="#12F1B9" d="M737.116 740.364C739.495 741.574 754.164 756.613 757.037 759.464C775.794 777.938 794.254 796.711 812.411 815.775C820.308 824.032 831.087 834.042 837.525 843.454C840.843 849.758 842.465 860.093 840.491 866.899C834.249 888.425 814.814 897.137 794.376 892.159C780.335 886.667 766.596 869.735 755.865 858.648C733.557 835.601 710.045 812.842 688.395 789.254C699.06 778.66 709.39 767.683 720.037 757.068C725.616 751.506 731.169 745.476 737.116 740.364Z"/><path fill="#12F1B9" d="M706.399 708.33L707.164 709.095C706.688 710.668 706.466 711.069 706.625 712.738C707.507 714.153 707.389 714.219 708.845 714.946C710.362 714.642 710.014 714.545 711.279 713.107C713.945 714.767 720.449 721.742 723.022 724.384C715.391 733.118 707.902 740.089 699.808 748.251C691.234 756.895 682.821 765.699 674.575 774.658L673.971 774.765C669.058 771.842 661.838 763.675 658.519 758.819L657.697 759.019L656.74 758.323C656.514 756.252 662.595 752.92 664.788 751.227C681.133 738.611 694.333 724.93 706.399 708.33Z"/></svg>